<mxfile host="65bd71144e">
    <diagram id="-A5N0DDUyWGeM8byyT_L" name="Page-1">
        <mxGraphModel dx="825" dy="479" grid="0" gridSize="10" guides="1" tooltips="1" connect="1" arrows="1" fold="1" page="1" pageScale="1" pageWidth="827" pageHeight="1169" background="#ffffff" math="0" shadow="0">
            <root>
                <mxCell id="0"/>
                <mxCell id="1" parent="0"/>
                <mxCell id="33" value="" style="whiteSpace=wrap;html=1;rounded=0;labelBackgroundColor=#FFFFFF;fontSize=12;fontColor=#6E6E6E;strokeColor=#E6E6E6;fillColor=#FFFFFF;" vertex="1" parent="1">
                    <mxGeometry x="123" y="533" width="571" height="439" as="geometry"/>
                </mxCell>
                <mxCell id="11" value="" style="whiteSpace=wrap;html=1;fontSize=11;fontColor=#6E6E6E;fillColor=#FFFFFF;strokeColor=#3399FF;rounded=1;" vertex="1" parent="1">
                    <mxGeometry x="116" y="192.17" width="73" height="27.83" as="geometry"/>
                </mxCell>
                <mxCell id="2" value="&lt;b style=&quot;font-size: 17px&quot;&gt;&lt;font color=&quot;#000000&quot; style=&quot;font-size: 17px&quot;&gt;Title&lt;/font&gt;&lt;span style=&quot;color: rgb(0 , 0 , 0)&quot;&gt;Title&lt;/span&gt;&lt;span style=&quot;color: rgb(0 , 0 , 0)&quot;&gt;Title&lt;/span&gt;&lt;span style=&quot;color: rgb(0 , 0 , 0)&quot;&gt;Title&lt;/span&gt;&lt;span style=&quot;color: rgb(0 , 0 , 0)&quot;&gt;Title&lt;/span&gt;&lt;span style=&quot;color: rgb(0 , 0 , 0)&quot;&gt;Title&lt;/span&gt;&lt;span style=&quot;color: rgb(0 , 0 , 0)&quot;&gt;Title&lt;/span&gt;&lt;span style=&quot;color: rgb(0 , 0 , 0)&quot;&gt;Title&lt;/span&gt;&lt;/b&gt;" style="text;html=1;align=center;verticalAlign=middle;resizable=0;points=[];autosize=1;strokeColor=none;fillColor=none;" vertex="1" parent="1">
                    <mxGeometry x="108" y="79" width="288" height="19" as="geometry"/>
                </mxCell>
                <mxCell id="4" value="&lt;font color=&quot;#6e6e6e&quot;&gt;&lt;font style=&quot;font-size: 15px&quot;&gt;User：&lt;/font&gt;&lt;span style=&quot;font-size: 15px&quot;&gt;Content&lt;/span&gt;&lt;span style=&quot;font-size: 15px&quot;&gt;Content&lt;/span&gt;&lt;span style=&quot;font-size: 15px&quot;&gt;Content&lt;/span&gt;&lt;span style=&quot;font-size: 15px&quot;&gt;Content&lt;/span&gt;&lt;span style=&quot;font-size: 15px&quot;&gt;Content&lt;/span&gt;&lt;span style=&quot;font-size: 15px&quot;&gt;Content&lt;/span&gt;&lt;span style=&quot;font-size: 15px&quot;&gt;Content&lt;/span&gt;&lt;span style=&quot;font-size: 15px&quot;&gt;Content&lt;/span&gt;&lt;span style=&quot;font-size: 15px&quot;&gt;Content&lt;/span&gt;&lt;span style=&quot;font-size: 15px&quot;&gt;Content&lt;br&gt;&lt;div&gt;&lt;span&gt;Content&lt;/span&gt;&lt;span&gt;Content&lt;/span&gt;&lt;span&gt;Content&lt;/span&gt;&lt;span&gt;Content&lt;/span&gt;&lt;span&gt;ContentContentContentContent...&lt;/span&gt;&lt;/div&gt;&lt;/span&gt;&lt;/font&gt;" style="text;html=1;align=left;verticalAlign=middle;resizable=0;points=[];autosize=1;strokeColor=none;fillColor=none;fontSize=17;fontColor=#000000;" vertex="1" parent="1">
                    <mxGeometry x="113" y="103" width="582" height="44" as="geometry"/>
                </mxCell>
                <mxCell id="6" value="&lt;span style=&quot;text-align: left&quot;&gt;阅读全文&lt;/span&gt;∨" style="text;html=1;align=center;verticalAlign=middle;resizable=0;points=[];autosize=1;strokeColor=none;fillColor=none;fontSize=13;fontColor=#3399FF;" vertex="1" parent="1">
                    <mxGeometry x="113" y="147" width="72" height="20" as="geometry"/>
                </mxCell>
                <mxCell id="8" value="赞同999" style="text;html=1;align=left;verticalAlign=middle;resizable=0;points=[];autosize=1;strokeColor=none;fillColor=none;fontSize=11;fontColor=#3399FF;" vertex="1" parent="1">
                    <mxGeometry x="142.5" y="198.5" width="50" height="17" as="geometry"/>
                </mxCell>
                <mxCell id="9" value="&lt;font color=&quot;#6e6e6e&quot; style=&quot;font-size: 11px;&quot;&gt;999条评论&lt;/font&gt;" style="text;html=1;align=center;verticalAlign=middle;resizable=0;points=[];autosize=1;strokeColor=none;fillColor=none;fontSize=11;fontColor=#3399FF;" vertex="1" parent="1">
                    <mxGeometry x="228" y="200.10999999999999" width="61" height="17" as="geometry"/>
                </mxCell>
                <mxCell id="10" value="&lt;font style=&quot;font-size: 11px&quot;&gt;编辑于2022-11-10 10:04&lt;/font&gt;" style="text;html=1;align=center;verticalAlign=middle;resizable=0;points=[];autosize=1;strokeColor=none;fillColor=none;fontSize=13;fontColor=#6E6E6E;" vertex="1" parent="1">
                    <mxGeometry x="116" y="167" width="129" height="22" as="geometry"/>
                </mxCell>
                <mxCell id="12" value="" style="shape=image;verticalLabelPosition=bottom;labelBackgroundColor=#ffffff;verticalAlign=top;aspect=fixed;imageAspect=0;image=data:image/png,iVBORw0KGgoAAAANSUhEUgAAAEwAAABFCAYAAADgmADjAAAFcElEQVR4nO2bS2xUVRjHfzPTmTKdoZ0+aKG1QAu0yqNqpRE0GFkQQ00UNyw1YuLGqFtCYoI7NhojCzXGBRsTExaYGFSCRYXGghWj0NjaF7aUYh/0/ZzHdXFies+9d0rvnZk7w+X+ki7O13se+c93vvudx/UoiqLgsma82R7Ag4YrmElcwUziCmYSVzCTuIKZJC/bA4gnoH8KusehewKK18H2Eti9AdYHsj06PVkVbHwBPrgK57pgNirE83ggzwP7quCzZijKz+YI9XiykbgmFDjfCyd/hqGZ5M9VF8Kpg/D8FvB67BvfamQlhrUOwolLq4sFMDgNp9thZtmeca0F2wWLJeDT32F0XrYX+KE0CEG/bG8bgjN/2je++2H7lLx2B145K6bl/zSUwxuNULleeNUX16FjdOX/5SFoPwb+HHin2x70rwzKYkXWwdtPw1OVorytRHjbu9/CUlzYRuagdwIeLbV7tHps/c1mlsUUU7MpDDUR2RYOCNHUdN/L7NjWiq2CjczpA/1jZRAJyrZYQvypycuB6Qg2C3ZnBoZnZVtTlT5liCUgqhEspPG4bGGrYD8OwEJspZzvg8ZN+ufiBh4WypGs31bBWgflcuMm2BDSPxdT9IKFHzYP65uEG6Oy7cBm42cXY3pb+GHzsPM9cjoRDsC+auNnF6N6W654mC15WFyBi7dk29YIFAeNn18wECyagIlFa/2H/BDwWaurxRbB+idF4qmmthgKkvS+GNfbXv/Gev/bimHPBjhSL5ZfqWCLYJ1jMKdaQOd5YXc5+JP86kYe1j5svf/2YTjrgY9+hS+PCPGskvEYllDg5qgcyP3e1Zc5CwZBP1XiCozNw/EW+GfKejsZF2wpDtfvgnqFXxyEurLkdYzekuni+l04edl6/YxPyfkodIzJtgPVqwfh8gJ4qS59Y7jQJ/8I3/UK4Ro3mm8r44L9chvuLci2wztWr/PqE+kdQ10pfNIOc6rYeLHfmmAZn5JnO+VyRQj2VGS6V5mDNVBZKNt+uyuWYGbJqGAzy/DTgGxrqhQHHXZSWiB+KDVzUdnj1kpGBWsb0gfwvZWZ7NGYuWWYWZJtwTz9nttasBzDFmPCg9SL5KAfIqpjsdbbcp2SINQUW+3ROn/8Cz2aDcgthdb22CwJNjwL71+GrnGYViWkxxrgrb0r5aFpuV5ZAVSErfRone974NQV/fR7LsnC/35YEqzlFnz9t/l6fp/YA7OLwSn4sA2mNNPxUC28eJ83dTIsxTDtrmmuUl0ER3fq7SeeAZ/FF0+O7JRnjpfr9babo3rbWnG8YGUheGS9bOtN4QTK8YKNzcOI5pR9d7n19hwv2MdXYVm1v1aYD4+nsNLI+v2wTBFX4Nxf8EOfbN9Zltq9M8d62HwUTl+T99Z8Xnih1hXMkHwfNGimXjBPCJbKXTPHCub3ililFieWEKfvqeBYwTwe2FUu3zeLJ+BOikm3YwUDmF6S97x8XthocNJuBscKthwXC+8lzeFLqrsljkwrFqJwoRcuaQ6P91bqs36zOE6wuAJfdYiEVY3fB8f3p96+46akzwM7SvT2Q1vFXdpUcZxgAM9uhj0acabTdHXdkYIBHN0ll7VHfVZxpGAKcFVznpCu+2WOFKxrTBzUqomk6Zslxwk2MAnvtRgc7xncpbWCrWlFxwgcPGNnj4LaCDRvT09bjvMwI958ErYUpactSx6m/YAqVynMh3ea4LWG9LVpycMOb4P6HPjuJxmF+WKMnzcL70onlr5mUxDrtc5xmFDlNwUB2F+1Ur4xIj6XsZOgX9xuDAfSdxFYTVa+yH2QeSiCfjpxBTOJK5hJXMFM4gpmElcwk7iCmcQVzCSuYCb5D9zubJv1xcyNAAAAAElFTkSuQmCC;fontSize=11;" vertex="1" parent="1">
                    <mxGeometry x="121" y="197.24" width="21.5" height="19.52" as="geometry"/>
                </mxCell>
                <mxCell id="13" value="" style="shape=image;verticalLabelPosition=bottom;labelBackgroundColor=#ffffff;verticalAlign=top;aspect=fixed;imageAspect=0;image=data:image/png,iVBORw0KGgoAAAANSUhEUgAAAE0AAABGCAYAAACJzhlzAAAMhElEQVR4nO2b6U8bxxvHv14fsOuD9YUxvoFgbnBFaCIiUiWter3pu6r/Tf+evm2rplWUqkUJpSUEAjYluFAvhnV8xGZ9s7b396LyisUYWGOOX8RHQshr7zMz331mdp5nZhSCIAi4RRbEdVfg/5Fb0VrgVrQWuBWtBW5Fa4Fb0VrgVrQWUF1n4YIgIJVKYXd3F5lMBoVCAYVCAfl8HoVCAYIggCRJaLVaUBQFrVYLo9EIl8sFs9kMhUJxLfW+ctGq1SoSiQS2t7exvb2NaDSKdDqNYrEInufB8zwODw/B8zwEQYBarYZGoxH/kyQJo9EIt9uNgYEBeL1emM1mKJXKK2uD4qoigmKxiJ2dHayvr2N7exvxeBzv3r1DsViE3CooFApQFAWz2Qyr1Qqv14vR0VH09fWBoqhLasGR8i9btHK5DIZhsLS0hFAoBJZlkcvlUKvV2mKfIAjodDrYbDaMjIxgenoaHo8HnZ2dbbF/EpcmmiAI2Nvbw+LiIoLBIHZ3d8Fx3JleRRAEOjo6oNPpoFQqxfGtWq2eep9CoYBer4fT6cTo6Cju3r0Ll8t1Kd32UkSrVqvY2trC06dPsba2hoODgxM9S6lUoqurCx6PB06nEyaTCTqdDiRJQqPRgCAIHB4eolQqIZ/P4+DgAG/fvkUkEsHbt29RLpcbbBIEAYPBgDt37uD+/fuYmJiAwWBoa/vaLhrP81hbW8PPP/+Mzc1NFAqFht9YrVYMDg7C5/PB4XDAZDKhq6sLFEVBrVY3eEetVkOlUkGpVEI2m0UmkwHLsohEItja2kI0GsXh4aHkHo1Gg+7ubszMzODhw4ew2+1ta2NbRSuXy1hYWMBPP/2Evb29hoZYrVaMj49jfHwcXq8XNE2DoqiWpg7lchkcx4FlWQSDQayurp4oHk3TCAQC+OSTTzAwMHCh9tVpm2i5XA4vXrwQBTuK2WzG2NgYpqam0N/fD5PJBI1G045iUa1WwXEcdnd3EQwG8ddffyEajUp+o9VqEQgE8MUXX7RFuLbM00qlEhYWFvDDDz8gFotJvnM4HHj06BGmp6dhNpvbJlYdpVIJo9EIg8EAl8sFq9WKX375Bf/++6/4m3w+j1evXsFoNMJkMsFkMl2szG+//fbbixjgeR5LS0v48ccfGzysv78fX375Je7duweLxXKpE1CCIECSJKxWK0wmEzKZDJLJpKSe7969Q0dHB5xO54Ue3oViz1qtho2NDTx9+rShS/j9fnz11VeYmZlBV1fXRYqRhV6vRyAQwDfffIOZmRnJd8lkEi9evEAwGESlUmm5jAt1z0gkgl9//RXhcFgyj+rp6cHc3BwmJycvdZLZDJIk4ff7oVKpUKlUsLy8LH4XjUbx+++/w2g04s6dOy3Zb1m0XC6Hly9fYnV1VTJfomkaDx48wPT09LUIVocgCPh8Pnz22WcoFovY2NgA8N9bNxgMoqenBxaLBUajUb7tViu1u7uLUCiEXC4nXtNqtfjwww8xNzfXUmXajUqlwtDQEB4/fgyPxyNez+fzYgzcCi2JxnEcXr9+jZ2dHcl1r9eLe/fuwWaztVSZy6CzsxOBQAAzMzPQ6XTi9f39fbx8+RJv376VbbMl0RiGQTAYRD6fF6/RNI3JyUn09fVdW56rGXq9HsPDw3C5XOK1UqmE9fV1BINB8Dwvy55s0QqFAjY3N8EwjOS62+3G8PAwSJKUa/JK8Pl8mJiYkHhbMplEKBRCIpGQZUu2aOl0GtFoVBJT0jSNsbExuN1uueauDK1WC7/fL/G2SqWCaDSK/f19WbZki5ZIJBCPxyXXnE4n/H7/jfWyOi6XCz6fTzLJTiQSssc1WaIJgoBYLCZ5MiqVCh6PR/IEbyp6vR4ej0cSRuXzeezv7yOTyZzbjizR6lmFo12znm7WarVyTF0LBEGgt7dXkiaq1WqIxWINMfOpduQUWnflo4kRh8MBj8dz496YzXA6nQ31TSaTsl4GskTL5/PIZrPiZ4VCgZ6eHvT09Mgxc61QFAW73S6Jh/P5vGSSfhayRCuVSiiVSuJnpVIJiqLOFS4dv/cs6uuf5033VSoVFIvFMwNxhUIhrqO2WjdZsWe5XJYYV6vVUKvVp94TiUTExKBOp4PX62149R9lb28Pa2tr2NnZAc/zcLlcCAQC8Hq9TcsIh8N4/vw5kskkrFYr7t+/f2owrlKpJPXmeR7lchmCIJxrmJEl2vEncrzw4xQKBSwvL+PJkyfI5XLQaDQIh8PQaDRNRWNZFvPz84hEIqjVagiFQhAEATab7cQpTSwWw2+//Yb5+XkUCgVQFIXDw0PodLqm6wLHH7YgCKhWq+cWTVb3lOtpDMNgfX0dHMehVquhVCohGo2CYRhJCFanVCqBYRgx11+pVJBOp7Gzs9N0oA6Hw1hZWRHf6IVCASsrK9jc3Gxar5PqXavVzlwmrCNLNIVCIXkS1Wr11DGEIAgQhLSIWq0GgiCgUjU6uVKpBEEQkuW++pjWzAMUCkVDGcfr2W5kidbZ2SnpIvUNK81wOBwYHh4W4z2CIGCz2Zqmm1UqFex2O2w2m9hovV4Pn88Hq9V6Yhn9/f0YHR1FR0eHWMfR0dFTx7RKpdLwsE96wM2QNaZRFAWKonBwcADgvwE0l8uhXC6LlT6KVqvF7OwsaJrG7u4uOjs70dfXh/7+/hM9QaFQwO/34+uvv8bW1hZ4nofH48Hw8HDTN7TFYsHnn38Ol8uFRCKB7u5ujIyMoLu7u2k76httjnKpoh2f+dfnOCeJBgA2mw00TSOXy0GpVEKn053YNevQNI2pqSkMDAygVqtBp9M1tQ385531rVelUgkkSZ4ZA1cqFYlo9R1J5+3SbRPNbDY3va+jo+PUhh9HrVbLzvzWe8F5KBaLKBaLkvrJSc3LGtNIkmyoGMdxYnf9fyCXy4FlWUlko9VqZcXOskSrL7YeJR6Pywp2r5v6HpCj3dNqtcpK0csSjaIocXdPHY7jEI1GwXGcHFPXBsuykjVagiDgcDjgdDrPbUOWaARBwOPxSFZ2qtUq9vf3wbKsHFPXQiaTwc7ODtLptHiNpmm43W5JGvwsZGduHQ4HfD6f5A3IsmzDloSbCMMwCIfDkjma3W6Hw+GQNRmWLRpJkvB6vZIxIJ1OIxwOI5VKyTV3ZWQyGayvr0sWhDQaDdxuN3p7e2XZamkJz+12w+fziZ8rlQrC4XDLi69XAcMw2NjYkEw17HY7hoaGZO+UbEm0k942xxOUN4l0Oo3Xr19LvKyzsxMjIyPw+/3njgTqtCTaefJoN4VisYilpSX8+eefEi/r7e3F2NgYaJqWbfO9PuYjCAKCwSCePXsmWXakKArj4+MYHByU7WXAey5aKBTCkydPxIRmHbfbfaFd39d6NuqyqNVqWF1dxffff483b95Iphg+nw8ff/xx00zLeXjvREsmk1hcXMT8/DwYhpEI5na78emnn+KDDz640HGg90o0lmXx7NkzPH/+HKlUSrKSZbFYMDc3h7t378qa/Z9EW0Xb29vDH3/80fR7kiThdDpPTSO1QiqVQjAYxPLyMkKhUMMWg66uLjx48ACzs7PQ6/UXLq9tonEch8XFRaysrDT9jVqthsfjEd9cp2VXz0Mmk8Hff/+NV69eYXNzE6lUquHoj8lkwsOHD/H48eO2Pay2iVYulxt2E50Ey7J48+YNenp60NfXh6GhIfh8vnN3mUKhgL29PYTDYWxtbSESiSCRSJy42Gu32/Ho0SPMzs7CYrHIblMzWj6xsrCwgO+++67lQL1+5NBqtcJiscBgMIjZ1/qfUqkUD82Wy2UUi0UkEgmwLItUKoWDg4MTdzGq1Wr4fD589NFHmJ6ebmkCexote1pvby+Gh4eRy+VaytzWajVwHAeO47C9vQ2VSiWeIK7/1ZfzKpUKqtUqeJ4XTyCfhFKphN1uRyAQwNTUlCwPlkPLnlYsFhGPx8EwDOLx+Jl7KHieB8uy2NrakrUX7DwoFArYbDZMTk5iYmICfX19oGn60k7IXPhAGc/zKJVKZ54UrlaryGaziMVi+Oeff7CxsQGGYSTxoFzqCUSn04nBwUEMDAzAaDReelx8ZWfY69TFi8fjiEaj2N7eRiwWA8dxyGazyGazDccPFQoF1Go1tFotaJqGw+EQ82BmsxldXV0wGAxtP6zWjCsX7SiHh4fIZDLIZrMol8viH8/zYncnCAJKpVIc80iShMFgAE3TIEmypYD7olyraM0QBEHs7vV9GTdpp+WNFO2m816nhi6LW9Fa4Fa0FrgVrQX+BwlAosJyxIIyAAAAAElFTkSuQmCC;fontSize=11;" vertex="1" parent="1">
                    <mxGeometry x="211" y="196.89" width="21.02" height="19.1" as="geometry"/>
                </mxCell>
                <mxCell id="14" value="" style="shape=image;verticalLabelPosition=bottom;labelBackgroundColor=#ffffff;verticalAlign=top;aspect=fixed;imageAspect=0;image=data:image/png,iVBORw0KGgoAAAANSUhEUgAAADMAAAAyCAYAAADx/eOPAAAIAklEQVRogd1Z208T3xb+Ck1padUWsC3l6gUVgpggNiEmahA0QNMIppJqotH4xJNvvvgHGE18gIQHjRobE23UoAlGLSASNSooCIRSuYkBOlgIU3thSm0754EwP6ZTSkfbc05+X9I0a82atfbXtffae68KaJqm8S9B0v96APHEv4qMMNEBnE4nXrx4gWAwiKqqKqhUqoTFSjiZhw8foru7GzRNw+VyobGxMWGxEjrNpqen0dXVhWAwiFAohO7ubkxNTSUsXsLI+P1+mEwmrC2WNE3DZDJheXk5ITETRsZms2FwcJCjHx4exvDwcEJiJoSM3+9HV1cXIm1hNE3jzZs3CclOQsgQBBH11x8eHsbs7Gzc4yaETFdXF5xOJyPv2LED27ZtY2S3243nz5/HPW7cyRAEgfb2dkZOSUmBwWCAwWCASCRi9B8+fIh7ZYs7GbPZjN+/fzPy7t27mc/OnTsZfSAQwOPHj+MaO65kJiYmMDIywtIdOnQIUqkUmzZtQnl5OeuZzWbDt2/f4hY/rmR6enpYayU/Px9arZaRDx48iIyMDEZ2u93o6emJW/y4krFYLKxy3NjYCLFYzMgymQznz59nZJqm0dHREbf4f02GpmksLS3hzp078Hq9jF6r1SI/P59jf+DAAezatYuRKYrCrVu3sLS0FHFf4gNeB81gMAiHwwGCIDA3N8d8Ly4ugiAIxk4ikeDw4cPr+qmoqMDk5CQCgQCAlVJus9mQlpYGtVqNzMxM5lupVCI5OZk/GYqi4PF44Pf74fV6YbfbmUETBAGHw4GlpaUNnebm5qK4uHjd5/v27YNarcbMzAyAlco2PT2N6elpDAwMsGxTU1OhVCqRmZnJkNRoNJBKpRCJRJDJZJBIJAAAweq1eXJyEmazGT9//oTH44HX60UwGIzpFwnHlStXUFJSEtWmra0NJpPpj/wnJydDKpVCJpNBrVbDaDQiLy/vn8x8+fIF/f39f+R8FRKJBCUlJRsSAQCdTod3795hZmYGfr+fV5xgMAiXywWXywW73Y7i4mI2GbVaHdVBUlIS5HI50tPTIZfLIZVKkZGRAY1Gg4yMDKSnp0OhUEAojH0ZXr16FT6fD/Pz85ifn4fD4cDCwgKcTiecTidIkoTT6YTH44laHFbXHjPNfD4f7t+/D4vFwjE+d+4cioqKIBaLIZFIIBaLIRKJkJSUmBtEMBiEz+cDRVFYXl6G3++H1WrFvXv3OLbHjh3DmTNnIJFI/smMWCzGxYsXAQCvX79m2AJAR0cHCgsLkZmZmZDBh2N1TUilUgArJ4u15z0AEAqFqKioYMYMRNhnGhoaUFlZydLNzs6iubmZc1T5b2BoaAhNTU2w2+0sfWVlJRoaGlg6wXpNQJPJhLa2NpZOoVDg8uXL2L59e5yHHBmjo6O4fv06fv36xdLrdDqcPXuWY7/upDcYDKipqWHpSJJES0sLJicn4zTc9WGz2dDS0sIhUlNTA4PBEPGddTMDrGyiT58+RWtrK0uvUChw6dIlFBYWxmHYXPT19aGlpQUul4ulr6urw4kTJ5hNMhxRy5FEIoHRaIRer2eVXJIkcfPmzYRkaGRkBLdv32YREQqF0Ov1MBqN6xIBYjxo1tfXQ6fTsXSJKAq9vb1obm7G/Pw8S6/T6VBfX7/h+1GnWTiePHkCs9nM0sWrKAwNDeHGjRuskzewUl1PnjwZkw9eu55Op0NdXR1L53a7OWXzT+D1elnXbWBljYTPiGjgRSYlJQW1tbUsnVgshkKh4OMmItLS0jjroba2FikpKTH74H0eWVxcZMkSiQRyuZyvGw4ikSFJkpcP3mTCp1S8MrN582ZOFtZe+GIBbzLhARQKBVJTU/m64UAkEkGpVEaNtRF4kaFpGgsLCyxdTk7Ohu+53W643e4N7db21QDA4XDw6gvw6gEsLy9zjhe5ublR3/n48SOePXsGgUCA+vp6lJWVrWsb7svlcsHv98dcBHiR8fl8nEWZl5cX0W5iYgKPHj2C1Wpl9NeuXUNpaSnq6uqQn5/PGWT4FcPpdMLn8yWOzNomn0wmQ3Z2NiMHAgEMDAygs7MTVqs1YvOjr68Po6OjKCoqQnV1Nfbs2cN0X5RKJeRyORODJElQFIUtW7YkhszaaZadnc00w71eL5qamvD169cN57nH40FPTw96e3uh1WrR2Ni4clMUCpGbm8uQWc1MrOBFZm5ujnUDzcnJwfj4ON6/f4/Ozs6IgUUiEQoKCgAAY2NjrOYFTdP49OkTBgcHUVVVhfLycmg0GuYft0AgAIfDEbGZ+Ndkvn//zpF7e3vhcrkQCoU49kqlEqdPn8bevXshEAhgtVrx4MEDzh9NFEWhra0Nb9++ZfWiAWBqaorVr44bmR8/frDk8fFxjk1ycjJUKhUqKiqg1+tZz7RaLbRaLV69egWLxQKCIJhMh0IhkCTJKTB8/sP5KzLh0Gg0qK6uZjqW6+H48eMoKytDf38/LBZL1AHzIRPzFcDj8eDChQsRn60eQE+dOsW7/RQKhfDy5UuYzWZQFBXR5u7du0ynJhpizozD4WDJAoEAKpUKpaWlqKqqQlZWVqyuWEhKSkJNTQ3279+P9vZ2fP78GQRBsCoiSZLxJZOVlYWCggKMjY1BIBBAr9fjyJEjUKlUvLqY60GlUsFoNOLo0aPo7u5Ga2sraJqGRqPB1q1bY/LB66ZJURRsNhuUSuUfZyJW2O12EASBoqKiqPf+teBF5v8d/wGLbYqWSVqOpAAAAABJRU5ErkJggg==;" vertex="1" parent="1">
                    <mxGeometry x="302" y="198" width="19.49" height="19.11" as="geometry"/>
                </mxCell>
                <mxCell id="15" value="&lt;font style=&quot;font-size: 11px&quot;&gt;收藏&lt;/font&gt;" style="text;html=1;align=center;verticalAlign=middle;resizable=0;points=[];autosize=1;strokeColor=none;fillColor=none;fontSize=10;fontColor=#6E6E6E;" vertex="1" parent="1">
                    <mxGeometry x="319" y="200.11" width="32" height="17" as="geometry"/>
                </mxCell>
                <mxCell id="16" value="" style="whiteSpace=wrap;html=1;fontSize=11;fontColor=#6E6E6E;fillColor=#FFFFFF;strokeColor=#3399FF;rounded=1;" vertex="1" parent="1">
                    <mxGeometry x="113" y="451.99999999999994" width="73" height="27.83" as="geometry"/>
                </mxCell>
                <mxCell id="17" value="&lt;b style=&quot;font-size: 17px&quot;&gt;&lt;font color=&quot;#000000&quot; style=&quot;font-size: 17px&quot;&gt;Title&lt;/font&gt;&lt;span style=&quot;color: rgb(0 , 0 , 0)&quot;&gt;Title&lt;/span&gt;&lt;span style=&quot;color: rgb(0 , 0 , 0)&quot;&gt;Title&lt;/span&gt;&lt;span style=&quot;color: rgb(0 , 0 , 0)&quot;&gt;Title&lt;/span&gt;&lt;span style=&quot;color: rgb(0 , 0 , 0)&quot;&gt;Title&lt;/span&gt;&lt;span style=&quot;color: rgb(0 , 0 , 0)&quot;&gt;Title&lt;/span&gt;&lt;span style=&quot;color: rgb(0 , 0 , 0)&quot;&gt;Title&lt;/span&gt;&lt;span style=&quot;color: rgb(0 , 0 , 0)&quot;&gt;Title&lt;/span&gt;&lt;/b&gt;" style="text;html=1;align=center;verticalAlign=middle;resizable=0;points=[];autosize=1;strokeColor=none;fillColor=none;" vertex="1" parent="1">
                    <mxGeometry x="108" y="234" width="288" height="19" as="geometry"/>
                </mxCell>
                <mxCell id="18" value="&lt;font color=&quot;#6e6e6e&quot;&gt;&lt;font style=&quot;font-size: 15px&quot;&gt;User&lt;/font&gt;&lt;/font&gt;" style="text;html=1;align=left;verticalAlign=middle;resizable=0;points=[];autosize=1;strokeColor=none;fillColor=none;fontSize=17;fontColor=#000000;" vertex="1" parent="1">
                    <mxGeometry x="150.5" y="258" width="42" height="24" as="geometry"/>
                </mxCell>
                <mxCell id="19" value="&lt;div style=&quot;text-align: left; font-size: 12px;&quot;&gt;&lt;span style=&quot;font-size: 12px;&quot;&gt;&lt;font color=&quot;#6e6e6e&quot; style=&quot;font-size: 12px;&quot;&gt;收起&lt;/font&gt;&lt;/span&gt;&lt;span style=&quot;color: rgb(110, 110, 110); font-size: 12px;&quot;&gt;∧&lt;/span&gt;&lt;/div&gt;" style="text;html=1;align=center;verticalAlign=middle;resizable=0;points=[];autosize=1;strokeColor=none;fillColor=none;fontSize=12;fontColor=#3399FF;" vertex="1" parent="1">
                    <mxGeometry x="651" y="456.33000000000004" width="43" height="18" as="geometry"/>
                </mxCell>
                <mxCell id="20" value="赞同999" style="text;html=1;align=left;verticalAlign=middle;resizable=0;points=[];autosize=1;strokeColor=none;fillColor=none;fontSize=11;fontColor=#3399FF;" vertex="1" parent="1">
                    <mxGeometry x="139.5" y="458.33" width="50" height="17" as="geometry"/>
                </mxCell>
                <mxCell id="21" value="&lt;font color=&quot;#6e6e6e&quot; style=&quot;font-size: 11px;&quot;&gt;999条评论&lt;/font&gt;" style="text;html=1;align=center;verticalAlign=middle;resizable=0;points=[];autosize=1;strokeColor=none;fillColor=none;fontSize=11;fontColor=#3399FF;" vertex="1" parent="1">
                    <mxGeometry x="225" y="459.94" width="61" height="17" as="geometry"/>
                </mxCell>
                <mxCell id="22" value="&lt;font style=&quot;font-size: 11px&quot;&gt;编辑于2022-11-10 10:04&lt;/font&gt;" style="text;html=1;align=center;verticalAlign=middle;resizable=0;points=[];autosize=1;strokeColor=none;fillColor=none;fontSize=13;fontColor=#6E6E6E;" vertex="1" parent="1">
                    <mxGeometry x="121" y="426" width="129" height="22" as="geometry"/>
                </mxCell>
                <mxCell id="23" value="" style="shape=image;verticalLabelPosition=bottom;labelBackgroundColor=#ffffff;verticalAlign=top;aspect=fixed;imageAspect=0;image=data:image/png,iVBORw0KGgoAAAANSUhEUgAAAEwAAABFCAYAAADgmADjAAAFcElEQVR4nO2bS2xUVRjHfzPTmTKdoZ0+aKG1QAu0yqNqpRE0GFkQQ00UNyw1YuLGqFtCYoI7NhojCzXGBRsTExaYGFSCRYXGghWj0NjaF7aUYh/0/ZzHdXFies+9d0rvnZk7w+X+ki7O13se+c93vvudx/UoiqLgsma82R7Ag4YrmElcwUziCmYSVzCTuIKZJC/bA4gnoH8KusehewKK18H2Eti9AdYHsj06PVkVbHwBPrgK57pgNirE83ggzwP7quCzZijKz+YI9XiykbgmFDjfCyd/hqGZ5M9VF8Kpg/D8FvB67BvfamQlhrUOwolLq4sFMDgNp9thZtmeca0F2wWLJeDT32F0XrYX+KE0CEG/bG8bgjN/2je++2H7lLx2B145K6bl/zSUwxuNULleeNUX16FjdOX/5SFoPwb+HHin2x70rwzKYkXWwdtPw1OVorytRHjbu9/CUlzYRuagdwIeLbV7tHps/c1mlsUUU7MpDDUR2RYOCNHUdN/L7NjWiq2CjczpA/1jZRAJyrZYQvypycuB6Qg2C3ZnBoZnZVtTlT5liCUgqhEspPG4bGGrYD8OwEJspZzvg8ZN+ufiBh4WypGs31bBWgflcuMm2BDSPxdT9IKFHzYP65uEG6Oy7cBm42cXY3pb+GHzsPM9cjoRDsC+auNnF6N6W654mC15WFyBi7dk29YIFAeNn18wECyagIlFa/2H/BDwWaurxRbB+idF4qmmthgKkvS+GNfbXv/Gev/bimHPBjhSL5ZfqWCLYJ1jMKdaQOd5YXc5+JP86kYe1j5svf/2YTjrgY9+hS+PCPGskvEYllDg5qgcyP3e1Zc5CwZBP1XiCozNw/EW+GfKejsZF2wpDtfvgnqFXxyEurLkdYzekuni+l04edl6/YxPyfkodIzJtgPVqwfh8gJ4qS59Y7jQJ/8I3/UK4Ro3mm8r44L9chvuLci2wztWr/PqE+kdQ10pfNIOc6rYeLHfmmAZn5JnO+VyRQj2VGS6V5mDNVBZKNt+uyuWYGbJqGAzy/DTgGxrqhQHHXZSWiB+KDVzUdnj1kpGBWsb0gfwvZWZ7NGYuWWYWZJtwTz9nttasBzDFmPCg9SL5KAfIqpjsdbbcp2SINQUW+3ROn/8Cz2aDcgthdb22CwJNjwL71+GrnGYViWkxxrgrb0r5aFpuV5ZAVSErfRone974NQV/fR7LsnC/35YEqzlFnz9t/l6fp/YA7OLwSn4sA2mNNPxUC28eJ83dTIsxTDtrmmuUl0ER3fq7SeeAZ/FF0+O7JRnjpfr9babo3rbWnG8YGUheGS9bOtN4QTK8YKNzcOI5pR9d7n19hwv2MdXYVm1v1aYD4+nsNLI+v2wTBFX4Nxf8EOfbN9Zltq9M8d62HwUTl+T99Z8Xnih1hXMkHwfNGimXjBPCJbKXTPHCub3ililFieWEKfvqeBYwTwe2FUu3zeLJ+BOikm3YwUDmF6S97x8XthocNJuBscKthwXC+8lzeFLqrsljkwrFqJwoRcuaQ6P91bqs36zOE6wuAJfdYiEVY3fB8f3p96+46akzwM7SvT2Q1vFXdpUcZxgAM9uhj0acabTdHXdkYIBHN0ll7VHfVZxpGAKcFVznpCu+2WOFKxrTBzUqomk6Zslxwk2MAnvtRgc7xncpbWCrWlFxwgcPGNnj4LaCDRvT09bjvMwI958ErYUpactSx6m/YAqVynMh3ea4LWG9LVpycMOb4P6HPjuJxmF+WKMnzcL70onlr5mUxDrtc5xmFDlNwUB2F+1Ur4xIj6XsZOgX9xuDAfSdxFYTVa+yH2QeSiCfjpxBTOJK5hJXMFM4gpmElcwk7iCmcQVzCSuYCb5D9zubJv1xcyNAAAAAElFTkSuQmCC;fontSize=11;" vertex="1" parent="1">
                    <mxGeometry x="118" y="457.07" width="21.5" height="19.52" as="geometry"/>
                </mxCell>
                <mxCell id="24" value="" style="shape=image;verticalLabelPosition=bottom;labelBackgroundColor=#ffffff;verticalAlign=top;aspect=fixed;imageAspect=0;image=data:image/png,iVBORw0KGgoAAAANSUhEUgAAAE0AAABGCAYAAACJzhlzAAAMhElEQVR4nO2b6U8bxxvHv14fsOuD9YUxvoFgbnBFaCIiUiWter3pu6r/Tf+evm2rplWUqkUJpSUEAjYluFAvhnV8xGZ9s7b396LyisUYWGOOX8RHQshr7zMz331mdp5nZhSCIAi4RRbEdVfg/5Fb0VrgVrQWuBWtBW5Fa4Fb0VrgVrQWUF1n4YIgIJVKYXd3F5lMBoVCAYVCAfl8HoVCAYIggCRJaLVaUBQFrVYLo9EIl8sFs9kMhUJxLfW+ctGq1SoSiQS2t7exvb2NaDSKdDqNYrEInufB8zwODw/B8zwEQYBarYZGoxH/kyQJo9EIt9uNgYEBeL1emM1mKJXKK2uD4qoigmKxiJ2dHayvr2N7exvxeBzv3r1DsViE3CooFApQFAWz2Qyr1Qqv14vR0VH09fWBoqhLasGR8i9btHK5DIZhsLS0hFAoBJZlkcvlUKvV2mKfIAjodDrYbDaMjIxgenoaHo8HnZ2dbbF/EpcmmiAI2Nvbw+LiIoLBIHZ3d8Fx3JleRRAEOjo6oNPpoFQqxfGtWq2eep9CoYBer4fT6cTo6Cju3r0Ll8t1Kd32UkSrVqvY2trC06dPsba2hoODgxM9S6lUoqurCx6PB06nEyaTCTqdDiRJQqPRgCAIHB4eolQqIZ/P4+DgAG/fvkUkEsHbt29RLpcbbBIEAYPBgDt37uD+/fuYmJiAwWBoa/vaLhrP81hbW8PPP/+Mzc1NFAqFht9YrVYMDg7C5/PB4XDAZDKhq6sLFEVBrVY3eEetVkOlUkGpVEI2m0UmkwHLsohEItja2kI0GsXh4aHkHo1Gg+7ubszMzODhw4ew2+1ta2NbRSuXy1hYWMBPP/2Evb29hoZYrVaMj49jfHwcXq8XNE2DoqiWpg7lchkcx4FlWQSDQayurp4oHk3TCAQC+OSTTzAwMHCh9tVpm2i5XA4vXrwQBTuK2WzG2NgYpqam0N/fD5PJBI1G045iUa1WwXEcdnd3EQwG8ddffyEajUp+o9VqEQgE8MUXX7RFuLbM00qlEhYWFvDDDz8gFotJvnM4HHj06BGmp6dhNpvbJlYdpVIJo9EIg8EAl8sFq9WKX375Bf/++6/4m3w+j1evXsFoNMJkMsFkMl2szG+//fbbixjgeR5LS0v48ccfGzysv78fX375Je7duweLxXKpE1CCIECSJKxWK0wmEzKZDJLJpKSe7969Q0dHB5xO54Ue3oViz1qtho2NDTx9+rShS/j9fnz11VeYmZlBV1fXRYqRhV6vRyAQwDfffIOZmRnJd8lkEi9evEAwGESlUmm5jAt1z0gkgl9//RXhcFgyj+rp6cHc3BwmJycvdZLZDJIk4ff7oVKpUKlUsLy8LH4XjUbx+++/w2g04s6dOy3Zb1m0XC6Hly9fYnV1VTJfomkaDx48wPT09LUIVocgCPh8Pnz22WcoFovY2NgA8N9bNxgMoqenBxaLBUajUb7tViu1u7uLUCiEXC4nXtNqtfjwww8xNzfXUmXajUqlwtDQEB4/fgyPxyNez+fzYgzcCi2JxnEcXr9+jZ2dHcl1r9eLe/fuwWaztVSZy6CzsxOBQAAzMzPQ6XTi9f39fbx8+RJv376VbbMl0RiGQTAYRD6fF6/RNI3JyUn09fVdW56rGXq9HsPDw3C5XOK1UqmE9fV1BINB8Dwvy55s0QqFAjY3N8EwjOS62+3G8PAwSJKUa/JK8Pl8mJiYkHhbMplEKBRCIpGQZUu2aOl0GtFoVBJT0jSNsbExuN1uueauDK1WC7/fL/G2SqWCaDSK/f19WbZki5ZIJBCPxyXXnE4n/H7/jfWyOi6XCz6fTzLJTiQSssc1WaIJgoBYLCZ5MiqVCh6PR/IEbyp6vR4ej0cSRuXzeezv7yOTyZzbjizR6lmFo12znm7WarVyTF0LBEGgt7dXkiaq1WqIxWINMfOpduQUWnflo4kRh8MBj8dz496YzXA6nQ31TSaTsl4GskTL5/PIZrPiZ4VCgZ6eHvT09Mgxc61QFAW73S6Jh/P5vGSSfhayRCuVSiiVSuJnpVIJiqLOFS4dv/cs6uuf5033VSoVFIvFMwNxhUIhrqO2WjdZsWe5XJYYV6vVUKvVp94TiUTExKBOp4PX62149R9lb28Pa2tr2NnZAc/zcLlcCAQC8Hq9TcsIh8N4/vw5kskkrFYr7t+/f2owrlKpJPXmeR7lchmCIJxrmJEl2vEncrzw4xQKBSwvL+PJkyfI5XLQaDQIh8PQaDRNRWNZFvPz84hEIqjVagiFQhAEATab7cQpTSwWw2+//Yb5+XkUCgVQFIXDw0PodLqm6wLHH7YgCKhWq+cWTVb3lOtpDMNgfX0dHMehVquhVCohGo2CYRhJCFanVCqBYRgx11+pVJBOp7Gzs9N0oA6Hw1hZWRHf6IVCASsrK9jc3Gxar5PqXavVzlwmrCNLNIVCIXkS1Wr11DGEIAgQhLSIWq0GgiCgUjU6uVKpBEEQkuW++pjWzAMUCkVDGcfr2W5kidbZ2SnpIvUNK81wOBwYHh4W4z2CIGCz2Zqmm1UqFex2O2w2m9hovV4Pn88Hq9V6Yhn9/f0YHR1FR0eHWMfR0dFTx7RKpdLwsE96wM2QNaZRFAWKonBwcADgvwE0l8uhXC6LlT6KVqvF7OwsaJrG7u4uOjs70dfXh/7+/hM9QaFQwO/34+uvv8bW1hZ4nofH48Hw8HDTN7TFYsHnn38Ol8uFRCKB7u5ujIyMoLu7u2k76httjnKpoh2f+dfnOCeJBgA2mw00TSOXy0GpVEKn053YNevQNI2pqSkMDAygVqtBp9M1tQ385531rVelUgkkSZ4ZA1cqFYlo9R1J5+3SbRPNbDY3va+jo+PUhh9HrVbLzvzWe8F5KBaLKBaLkvrJSc3LGtNIkmyoGMdxYnf9fyCXy4FlWUlko9VqZcXOskSrL7YeJR6Pywp2r5v6HpCj3dNqtcpK0csSjaIocXdPHY7jEI1GwXGcHFPXBsuykjVagiDgcDjgdDrPbUOWaARBwOPxSFZ2qtUq9vf3wbKsHFPXQiaTwc7ODtLptHiNpmm43W5JGvwsZGduHQ4HfD6f5A3IsmzDloSbCMMwCIfDkjma3W6Hw+GQNRmWLRpJkvB6vZIxIJ1OIxwOI5VKyTV3ZWQyGayvr0sWhDQaDdxuN3p7e2XZamkJz+12w+fziZ8rlQrC4XDLi69XAcMw2NjYkEw17HY7hoaGZO+UbEm0k942xxOUN4l0Oo3Xr19LvKyzsxMjIyPw+/3njgTqtCTaefJoN4VisYilpSX8+eefEi/r7e3F2NgYaJqWbfO9PuYjCAKCwSCePXsmWXakKArj4+MYHByU7WXAey5aKBTCkydPxIRmHbfbfaFd39d6NuqyqNVqWF1dxffff483b95Iphg+nw8ff/xx00zLeXjvREsmk1hcXMT8/DwYhpEI5na78emnn+KDDz640HGg90o0lmXx7NkzPH/+HKlUSrKSZbFYMDc3h7t378qa/Z9EW0Xb29vDH3/80fR7kiThdDpPTSO1QiqVQjAYxPLyMkKhUMMWg66uLjx48ACzs7PQ6/UXLq9tonEch8XFRaysrDT9jVqthsfjEd9cp2VXz0Mmk8Hff/+NV69eYXNzE6lUquHoj8lkwsOHD/H48eO2Pay2iVYulxt2E50Ey7J48+YNenp60NfXh6GhIfh8vnN3mUKhgL29PYTDYWxtbSESiSCRSJy42Gu32/Ho0SPMzs7CYrHIblMzWj6xsrCwgO+++67lQL1+5NBqtcJiscBgMIjZ1/qfUqkUD82Wy2UUi0UkEgmwLItUKoWDg4MTdzGq1Wr4fD589NFHmJ6ebmkCexote1pvby+Gh4eRy+VaytzWajVwHAeO47C9vQ2VSiWeIK7/1ZfzKpUKqtUqeJ4XTyCfhFKphN1uRyAQwNTUlCwPlkPLnlYsFhGPx8EwDOLx+Jl7KHieB8uy2NrakrUX7DwoFArYbDZMTk5iYmICfX19oGn60k7IXPhAGc/zKJVKZ54UrlaryGaziMVi+Oeff7CxsQGGYSTxoFzqCUSn04nBwUEMDAzAaDReelx8ZWfY69TFi8fjiEaj2N7eRiwWA8dxyGazyGazDccPFQoF1Go1tFotaJqGw+EQ82BmsxldXV0wGAxtP6zWjCsX7SiHh4fIZDLIZrMol8viH8/zYncnCAJKpVIc80iShMFgAE3TIEmypYD7olyraM0QBEHs7vV9GTdpp+WNFO2m816nhi6LW9Fa4Fa0FrgVrQX+BwlAosJyxIIyAAAAAElFTkSuQmCC;fontSize=11;" vertex="1" parent="1">
                    <mxGeometry x="208" y="456.71999999999997" width="21.02" height="19.1" as="geometry"/>
                </mxCell>
                <mxCell id="25" value="" style="shape=image;verticalLabelPosition=bottom;labelBackgroundColor=#ffffff;verticalAlign=top;aspect=fixed;imageAspect=0;image=data:image/png,iVBORw0KGgoAAAANSUhEUgAAADMAAAAyCAYAAADx/eOPAAAIAklEQVRogd1Z208T3xb+Ck1padUWsC3l6gUVgpggNiEmahA0QNMIppJqotH4xJNvvvgHGE18gIQHjRobE23UoAlGLSASNSooCIRSuYkBOlgIU3thSm0754EwP6ZTSkfbc05+X9I0a82atfbXtffae68KaJqm8S9B0v96APHEv4qMMNEBnE4nXrx4gWAwiKqqKqhUqoTFSjiZhw8foru7GzRNw+VyobGxMWGxEjrNpqen0dXVhWAwiFAohO7ubkxNTSUsXsLI+P1+mEwmrC2WNE3DZDJheXk5ITETRsZms2FwcJCjHx4exvDwcEJiJoSM3+9HV1cXIm1hNE3jzZs3CclOQsgQBBH11x8eHsbs7Gzc4yaETFdXF5xOJyPv2LED27ZtY2S3243nz5/HPW7cyRAEgfb2dkZOSUmBwWCAwWCASCRi9B8+fIh7ZYs7GbPZjN+/fzPy7t27mc/OnTsZfSAQwOPHj+MaO65kJiYmMDIywtIdOnQIUqkUmzZtQnl5OeuZzWbDt2/f4hY/rmR6enpYayU/Px9arZaRDx48iIyMDEZ2u93o6emJW/y4krFYLKxy3NjYCLFYzMgymQznz59nZJqm0dHREbf4f02GpmksLS3hzp078Hq9jF6r1SI/P59jf+DAAezatYuRKYrCrVu3sLS0FHFf4gNeB81gMAiHwwGCIDA3N8d8Ly4ugiAIxk4ikeDw4cPr+qmoqMDk5CQCgQCAlVJus9mQlpYGtVqNzMxM5lupVCI5OZk/GYqi4PF44Pf74fV6YbfbmUETBAGHw4GlpaUNnebm5qK4uHjd5/v27YNarcbMzAyAlco2PT2N6elpDAwMsGxTU1OhVCqRmZnJkNRoNJBKpRCJRJDJZJBIJAAAweq1eXJyEmazGT9//oTH44HX60UwGIzpFwnHlStXUFJSEtWmra0NJpPpj/wnJydDKpVCJpNBrVbDaDQiLy/vn8x8+fIF/f39f+R8FRKJBCUlJRsSAQCdTod3795hZmYGfr+fV5xgMAiXywWXywW73Y7i4mI2GbVaHdVBUlIS5HI50tPTIZfLIZVKkZGRAY1Gg4yMDKSnp0OhUEAojH0ZXr16FT6fD/Pz85ifn4fD4cDCwgKcTiecTidIkoTT6YTH44laHFbXHjPNfD4f7t+/D4vFwjE+d+4cioqKIBaLIZFIIBaLIRKJkJSUmBtEMBiEz+cDRVFYXl6G3++H1WrFvXv3OLbHjh3DmTNnIJFI/smMWCzGxYsXAQCvX79m2AJAR0cHCgsLkZmZmZDBh2N1TUilUgArJ4u15z0AEAqFqKioYMYMRNhnGhoaUFlZydLNzs6iubmZc1T5b2BoaAhNTU2w2+0sfWVlJRoaGlg6wXpNQJPJhLa2NpZOoVDg8uXL2L59e5yHHBmjo6O4fv06fv36xdLrdDqcPXuWY7/upDcYDKipqWHpSJJES0sLJicn4zTc9WGz2dDS0sIhUlNTA4PBEPGddTMDrGyiT58+RWtrK0uvUChw6dIlFBYWxmHYXPT19aGlpQUul4ulr6urw4kTJ5hNMhxRy5FEIoHRaIRer2eVXJIkcfPmzYRkaGRkBLdv32YREQqF0Ov1MBqN6xIBYjxo1tfXQ6fTsXSJKAq9vb1obm7G/Pw8S6/T6VBfX7/h+1GnWTiePHkCs9nM0sWrKAwNDeHGjRuskzewUl1PnjwZkw9eu55Op0NdXR1L53a7OWXzT+D1elnXbWBljYTPiGjgRSYlJQW1tbUsnVgshkKh4OMmItLS0jjroba2FikpKTH74H0eWVxcZMkSiQRyuZyvGw4ikSFJkpcP3mTCp1S8MrN582ZOFtZe+GIBbzLhARQKBVJTU/m64UAkEkGpVEaNtRF4kaFpGgsLCyxdTk7Ohu+53W643e4N7db21QDA4XDw6gvw6gEsLy9zjhe5ublR3/n48SOePXsGgUCA+vp6lJWVrWsb7svlcsHv98dcBHiR8fl8nEWZl5cX0W5iYgKPHj2C1Wpl9NeuXUNpaSnq6uqQn5/PGWT4FcPpdMLn8yWOzNomn0wmQ3Z2NiMHAgEMDAygs7MTVqs1YvOjr68Po6OjKCoqQnV1Nfbs2cN0X5RKJeRyORODJElQFIUtW7YkhszaaZadnc00w71eL5qamvD169cN57nH40FPTw96e3uh1WrR2Ni4clMUCpGbm8uQWc1MrOBFZm5ujnUDzcnJwfj4ON6/f4/Ozs6IgUUiEQoKCgAAY2NjrOYFTdP49OkTBgcHUVVVhfLycmg0GuYft0AgAIfDEbGZ+Ndkvn//zpF7e3vhcrkQCoU49kqlEqdPn8bevXshEAhgtVrx4MEDzh9NFEWhra0Nb9++ZfWiAWBqaorVr44bmR8/frDk8fFxjk1ycjJUKhUqKiqg1+tZz7RaLbRaLV69egWLxQKCIJhMh0IhkCTJKTB8/sP5KzLh0Gg0qK6uZjqW6+H48eMoKytDf38/LBZL1AHzIRPzFcDj8eDChQsRn60eQE+dOsW7/RQKhfDy5UuYzWZQFBXR5u7du0ynJhpizozD4WDJAoEAKpUKpaWlqKqqQlZWVqyuWEhKSkJNTQ3279+P9vZ2fP78GQRBsCoiSZLxJZOVlYWCggKMjY1BIBBAr9fjyJEjUKlUvLqY60GlUsFoNOLo0aPo7u5Ga2sraJqGRqPB1q1bY/LB66ZJURRsNhuUSuUfZyJW2O12EASBoqKiqPf+teBF5v8d/wGLbYqWSVqOpAAAAABJRU5ErkJggg==;" vertex="1" parent="1">
                    <mxGeometry x="299" y="457.83" width="19.49" height="19.11" as="geometry"/>
                </mxCell>
                <mxCell id="26" value="&lt;font style=&quot;font-size: 11px&quot;&gt;收藏&lt;/font&gt;" style="text;html=1;align=center;verticalAlign=middle;resizable=0;points=[];autosize=1;strokeColor=none;fillColor=none;fontSize=10;fontColor=#6E6E6E;" vertex="1" parent="1">
                    <mxGeometry x="316" y="459.94" width="32" height="17" as="geometry"/>
                </mxCell>
                <mxCell id="27" value="" style="endArrow=none;html=1;fontSize=11;fontColor=#6E6E6E;" edge="1" parent="1">
                    <mxGeometry width="50" height="50" relative="1" as="geometry">
                        <mxPoint x="110" y="228" as="sourcePoint"/>
                        <mxPoint x="693" y="228" as="targetPoint"/>
                    </mxGeometry>
                </mxCell>
                <mxCell id="28" value="" style="endArrow=none;html=1;fontSize=11;fontColor=#6E6E6E;" edge="1" parent="1">
                    <mxGeometry width="50" height="50" relative="1" as="geometry">
                        <mxPoint x="109" y="73" as="sourcePoint"/>
                        <mxPoint x="109" y="482" as="targetPoint"/>
                    </mxGeometry>
                </mxCell>
                <mxCell id="29" value="" style="endArrow=none;html=1;fontSize=11;fontColor=#6E6E6E;" edge="1" parent="1">
                    <mxGeometry width="50" height="50" relative="1" as="geometry">
                        <mxPoint x="697" y="75" as="sourcePoint"/>
                        <mxPoint x="697" y="476" as="targetPoint"/>
                    </mxGeometry>
                </mxCell>
                <mxCell id="30" value="&lt;span style=&quot;text-align: left ; font-size: 15px&quot;&gt;Content&lt;/span&gt;&lt;span style=&quot;text-align: left ; font-size: 15px&quot;&gt;Content&lt;/span&gt;&lt;span style=&quot;text-align: left ; font-size: 15px&quot;&gt;Content&lt;/span&gt;&lt;span style=&quot;text-align: left ; font-size: 15px&quot;&gt;Content&lt;/span&gt;&lt;span style=&quot;text-align: left ; font-size: 15px&quot;&gt;Content&lt;/span&gt;&lt;span style=&quot;text-align: left ; font-size: 15px&quot;&gt;Content&lt;/span&gt;&lt;span style=&quot;text-align: left ; font-size: 15px&quot;&gt;Content&lt;/span&gt;&lt;span style=&quot;text-align: left ; font-size: 15px&quot;&gt;Content&lt;/span&gt;&lt;span style=&quot;text-align: left ; font-size: 15px&quot;&gt;Content&lt;/span&gt;&lt;span style=&quot;text-align: left ; font-size: 15px&quot;&gt;Content&lt;br&gt;&lt;div&gt;ContentContentContentContentContentContentContentContent&lt;/div&gt;&lt;/span&gt;&lt;span style=&quot;text-align: left ; font-size: 15px&quot;&gt;Content&lt;/span&gt;&lt;span style=&quot;text-align: left ; font-size: 15px&quot;&gt;Content&lt;/span&gt;&lt;span style=&quot;text-align: left ; font-size: 15px&quot;&gt;Content&lt;/span&gt;&lt;span style=&quot;text-align: left ; font-size: 15px&quot;&gt;Content&lt;/span&gt;&lt;span style=&quot;text-align: left ; font-size: 15px&quot;&gt;Content&lt;/span&gt;&lt;span style=&quot;text-align: left ; font-size: 15px&quot;&gt;Content&lt;/span&gt;&lt;span style=&quot;text-align: left ; font-size: 15px&quot;&gt;Content&lt;/span&gt;&lt;span style=&quot;text-align: left ; font-size: 15px&quot;&gt;Content&lt;/span&gt;&lt;span style=&quot;text-align: left ; font-size: 15px&quot;&gt;Content&lt;/span&gt;&lt;span style=&quot;text-align: left ; font-size: 15px&quot;&gt;Content&lt;br&gt;&lt;div&gt;ContentContentContentContentContentContentContentContent&lt;/div&gt;&lt;/span&gt;&lt;span style=&quot;text-align: left ; font-size: 15px&quot;&gt;Content&lt;/span&gt;&lt;span style=&quot;text-align: left ; font-size: 15px&quot;&gt;Content&lt;/span&gt;&lt;span style=&quot;text-align: left ; font-size: 15px&quot;&gt;Content&lt;/span&gt;&lt;span style=&quot;text-align: left ; font-size: 15px&quot;&gt;Content&lt;/span&gt;&lt;span style=&quot;text-align: left ; font-size: 15px&quot;&gt;Content&lt;/span&gt;&lt;span style=&quot;text-align: left ; font-size: 15px&quot;&gt;Content&lt;/span&gt;&lt;span style=&quot;text-align: left ; font-size: 15px&quot;&gt;Content&lt;/span&gt;&lt;span style=&quot;text-align: left ; font-size: 15px&quot;&gt;Content&lt;/span&gt;&lt;span style=&quot;text-align: left ; font-size: 15px&quot;&gt;Content&lt;/span&gt;&lt;span style=&quot;text-align: left ; font-size: 15px&quot;&gt;Content&lt;br&gt;&lt;div&gt;ContentContentContentContentContentContentContentContent&lt;/div&gt;&lt;/span&gt;&lt;span style=&quot;text-align: left ; font-size: 15px&quot;&gt;Content&lt;/span&gt;&lt;span style=&quot;text-align: left ; font-size: 15px&quot;&gt;Content&lt;/span&gt;&lt;span style=&quot;text-align: left ; font-size: 15px&quot;&gt;Content&lt;/span&gt;&lt;span style=&quot;text-align: left ; font-size: 15px&quot;&gt;Content&lt;/span&gt;&lt;span style=&quot;text-align: left ; font-size: 15px&quot;&gt;Content&lt;/span&gt;&lt;span style=&quot;text-align: left ; font-size: 15px&quot;&gt;Content&lt;/span&gt;&lt;span style=&quot;text-align: left ; font-size: 15px&quot;&gt;Content&lt;/span&gt;&lt;span style=&quot;text-align: left ; font-size: 15px&quot;&gt;Content&lt;/span&gt;&lt;span style=&quot;text-align: left ; font-size: 15px&quot;&gt;Content&lt;/span&gt;&lt;span style=&quot;text-align: left ; font-size: 15px&quot;&gt;Content&lt;br&gt;&lt;div&gt;ContentContentContentContentContentContentContentContent...&lt;/div&gt;&lt;/span&gt;" style="text;html=1;align=center;verticalAlign=middle;resizable=0;points=[];autosize=1;strokeColor=none;fillColor=none;fontSize=12;fontColor=#6E6E6E;" vertex="1" parent="1">
                    <mxGeometry x="113" y="295" width="536" height="119" as="geometry"/>
                </mxCell>
                <mxCell id="31" value="" style="shape=image;verticalLabelPosition=bottom;labelBackgroundColor=#ffffff;verticalAlign=top;aspect=fixed;imageAspect=0;image=data:image/png,iVBORw0KGgoAAAANSUhEUgAAACYAAAAlCAYAAAAuqZsAAAACQUlEQVRYhe2YQWvyQBCGn8QIzVppTFCJtAkIPeTs//8JnjwUqhSC0qilJLGYtFHJd4qYVmljMfpB31tmZjMPy+zsMlKapikXKPncAIek7H5sNhtc1yUIAsrcSEmS0DQN27apVCrApx1zXRff90uFAkjTFN/3cV13a8uBBUFQKtBn7ebPgZ37HOzmv9ji/wMrqosFU74P+V6dTgchBDc3N4RhSBRFPD8/nw/s6uoKx3GQZZnVasXb29sWsN1u8/DwwPv7e/lglmUhyzLj8Zj5fL61t1ot7u7usCyLx8fHo/59dI3puk69Xmc6neagAObzOdPplHq9jq7r5YJdX18D8PLystef2bO4ojoarFqtEscxSZLs9SdJQhzHVKvVcsGWyyWqqlKr1fb6a7UaqqqyXC7LBctOW6vV2uvP7KWfyiAI8DwP0zRZr9e8vr4SRRFCCAzDQNd1PM87+sXyq3aRNVHTNL/snOd5v2qyR4MJIbi/v0dRFD4+PojjmDiOUVUVVVUxTZNms8lwOCSKonLAGo0G3W4XgMlkwmw2+xLTbre5vb3FcRyenp7wfb9QjsLFL8vyFmowGOyFApjNZgwGAwC63S6yXCxVYbBOpwPAaDQ62MMyJUnCaDTKrTsZmGEYLBYLwjD8UXwYhiwWCwzDOB2YEAJFUQoXcxRFKIqCEOI0YNm9dwzY7vqfSNodEfT7/UIJT6Ferwdc8NP6D6yo/g8wSZLOxfElfw5M07TSYQ7lz13itm0DnHU+trX9jToL6h9d9e8xyq+d+AAAAABJRU5ErkJggg==;" vertex="1" parent="1">
                    <mxGeometry x="120.33" y="255" width="25.67" height="24.99" as="geometry"/>
                </mxCell>
                <mxCell id="32" value="" style="shape=image;verticalLabelPosition=bottom;labelBackgroundColor=#ffffff;verticalAlign=top;aspect=fixed;imageAspect=0;image=data:image/png,iVBORw0KGgoAAAANSUhEUgAAACYAAAAlCAYAAAAuqZsAAAACQUlEQVRYhe2YQWvyQBCGn8QIzVppTFCJtAkIPeTs//8JnjwUqhSC0qilJLGYtFHJd4qYVmljMfpB31tmZjMPy+zsMlKapikXKPncAIek7H5sNhtc1yUIAsrcSEmS0DQN27apVCrApx1zXRff90uFAkjTFN/3cV13a8uBBUFQKtBn7ebPgZ37HOzmv9ji/wMrqosFU74P+V6dTgchBDc3N4RhSBRFPD8/nw/s6uoKx3GQZZnVasXb29sWsN1u8/DwwPv7e/lglmUhyzLj8Zj5fL61t1ot7u7usCyLx8fHo/59dI3puk69Xmc6neagAObzOdPplHq9jq7r5YJdX18D8PLystef2bO4ojoarFqtEscxSZLs9SdJQhzHVKvVcsGWyyWqqlKr1fb6a7UaqqqyXC7LBctOW6vV2uvP7KWfyiAI8DwP0zRZr9e8vr4SRRFCCAzDQNd1PM87+sXyq3aRNVHTNL/snOd5v2qyR4MJIbi/v0dRFD4+PojjmDiOUVUVVVUxTZNms8lwOCSKonLAGo0G3W4XgMlkwmw2+xLTbre5vb3FcRyenp7wfb9QjsLFL8vyFmowGOyFApjNZgwGAwC63S6yXCxVYbBOpwPAaDQ62MMyJUnCaDTKrTsZmGEYLBYLwjD8UXwYhiwWCwzDOB2YEAJFUQoXcxRFKIqCEOI0YNm9dwzY7vqfSNodEfT7/UIJT6Ferwdc8NP6D6yo/g8wSZLOxfElfw5M07TSYQ7lz13itm0DnHU+trX9jToL6h9d9e8xyq+d+AAAAABJRU5ErkJggg==;" vertex="1" parent="1">
                    <mxGeometry x="121" y="489" width="40.06" height="39" as="geometry"/>
                </mxCell>
                <mxCell id="35" value="&lt;font color=&quot;#b3b3b3&quot; style=&quot;font-size: 14px&quot;&gt;&amp;nbsp; 评论千万条，友善第一条&lt;/font&gt;" style="whiteSpace=wrap;html=1;rounded=0;labelBackgroundColor=#FFFFFF;fontSize=12;fontColor=#6E6E6E;strokeColor=#E6E6E6;fillColor=#FFFFFF;align=left;" vertex="1" parent="1">
                    <mxGeometry x="166" y="491" width="525" height="34" as="geometry"/>
                </mxCell>
                <mxCell id="37" value="" style="shape=image;verticalLabelPosition=bottom;labelBackgroundColor=#ffffff;verticalAlign=top;aspect=fixed;imageAspect=0;image=data:image/png,iVBORw0KGgoAAAANSUhEUgAAACYAAAAlCAYAAAAuqZsAAAACQUlEQVRYhe2YQWvyQBCGn8QIzVppTFCJtAkIPeTs//8JnjwUqhSC0qilJLGYtFHJd4qYVmljMfpB31tmZjMPy+zsMlKapikXKPncAIek7H5sNhtc1yUIAsrcSEmS0DQN27apVCrApx1zXRff90uFAkjTFN/3cV13a8uBBUFQKtBn7ebPgZ37HOzmv9ji/wMrqosFU74P+V6dTgchBDc3N4RhSBRFPD8/nw/s6uoKx3GQZZnVasXb29sWsN1u8/DwwPv7e/lglmUhyzLj8Zj5fL61t1ot7u7usCyLx8fHo/59dI3puk69Xmc6neagAObzOdPplHq9jq7r5YJdX18D8PLystef2bO4ojoarFqtEscxSZLs9SdJQhzHVKvVcsGWyyWqqlKr1fb6a7UaqqqyXC7LBctOW6vV2uvP7KWfyiAI8DwP0zRZr9e8vr4SRRFCCAzDQNd1PM87+sXyq3aRNVHTNL/snOd5v2qyR4MJIbi/v0dRFD4+PojjmDiOUVUVVVUxTZNms8lwOCSKonLAGo0G3W4XgMlkwmw2+xLTbre5vb3FcRyenp7wfb9QjsLFL8vyFmowGOyFApjNZgwGAwC63S6yXCxVYbBOpwPAaDQ62MMyJUnCaDTKrTsZmGEYLBYLwjD8UXwYhiwWCwzDOB2YEAJFUQoXcxRFKIqCEOI0YNm9dwzY7vqfSNodEfT7/UIJT6Ferwdc8NP6D6yo/g8wSZLOxfElfw5M07TSYQ7lz13itm0DnHU+trX9jToL6h9d9e8xyq+d+AAAAABJRU5ErkJggg==;" vertex="1" parent="1">
                    <mxGeometry x="137.73" y="600" width="29.53" height="28.75" as="geometry"/>
                </mxCell>
                <mxCell id="41" value="" style="endArrow=none;html=1;fontSize=11;fontColor=#6E6E6E;" edge="1" parent="1">
                    <mxGeometry width="50" height="50" relative="1" as="geometry">
                        <mxPoint x="121" y="578" as="sourcePoint"/>
                        <mxPoint x="691" y="578" as="targetPoint"/>
                    </mxGeometry>
                </mxCell>
                <mxCell id="42" value="&lt;b&gt;&lt;font color=&quot;#000000&quot;&gt;999条评论&lt;/font&gt;&lt;/b&gt;" style="text;html=1;align=center;verticalAlign=middle;resizable=0;points=[];autosize=1;strokeColor=none;fillColor=none;fontSize=14;fontColor=#B3B3B3;" vertex="1" parent="1">
                    <mxGeometry x="137.73" y="547" width="76" height="21" as="geometry"/>
                </mxCell>
                <mxCell id="43" value="user" style="text;html=1;align=center;verticalAlign=middle;resizable=0;points=[];autosize=1;strokeColor=none;fillColor=none;fontSize=14;fontColor=#000000;" vertex="1" parent="1">
                    <mxGeometry x="167.26" y="603.88" width="37" height="21" as="geometry"/>
                </mxCell>
                <mxCell id="44" value="ContentContentContentContentContentContentContent" style="text;html=1;align=center;verticalAlign=middle;resizable=0;points=[];autosize=1;strokeColor=none;fillColor=none;fontSize=14;fontColor=#000000;" vertex="1" parent="1">
                    <mxGeometry x="167.26" y="628.75" width="353" height="21" as="geometry"/>
                </mxCell>
                <mxCell id="45" value="&lt;font style=&quot;font-size: 12px&quot; color=&quot;#6e6e6e&quot;&gt;11/10&lt;/font&gt;" style="text;html=1;align=center;verticalAlign=middle;resizable=0;points=[];autosize=1;strokeColor=none;fillColor=none;fontSize=14;fontColor=#000000;" vertex="1" parent="1">
                    <mxGeometry x="172" y="649.75" width="39" height="21" as="geometry"/>
                </mxCell>
                <mxCell id="46" value="" style="shape=image;verticalLabelPosition=bottom;labelBackgroundColor=#ffffff;verticalAlign=top;aspect=fixed;imageAspect=0;image=data:image/png,iVBORw0KGgoAAAANSUhEUgAAACYAAAAlCAYAAAAuqZsAAAACQUlEQVRYhe2YQWvyQBCGn8QIzVppTFCJtAkIPeTs//8JnjwUqhSC0qilJLGYtFHJd4qYVmljMfpB31tmZjMPy+zsMlKapikXKPncAIek7H5sNhtc1yUIAsrcSEmS0DQN27apVCrApx1zXRff90uFAkjTFN/3cV13a8uBBUFQKtBn7ebPgZ37HOzmv9ji/wMrqosFU74P+V6dTgchBDc3N4RhSBRFPD8/nw/s6uoKx3GQZZnVasXb29sWsN1u8/DwwPv7e/lglmUhyzLj8Zj5fL61t1ot7u7usCyLx8fHo/59dI3puk69Xmc6neagAObzOdPplHq9jq7r5YJdX18D8PLystef2bO4ojoarFqtEscxSZLs9SdJQhzHVKvVcsGWyyWqqlKr1fb6a7UaqqqyXC7LBctOW6vV2uvP7KWfyiAI8DwP0zRZr9e8vr4SRRFCCAzDQNd1PM87+sXyq3aRNVHTNL/snOd5v2qyR4MJIbi/v0dRFD4+PojjmDiOUVUVVVUxTZNms8lwOCSKonLAGo0G3W4XgMlkwmw2+xLTbre5vb3FcRyenp7wfb9QjsLFL8vyFmowGOyFApjNZgwGAwC63S6yXCxVYbBOpwPAaDQ62MMyJUnCaDTKrTsZmGEYLBYLwjD8UXwYhiwWCwzDOB2YEAJFUQoXcxRFKIqCEOI0YNm9dwzY7vqfSNodEfT7/UIJT6Ferwdc8NP6D6yo/g8wSZLOxfElfw5M07TSYQ7lz13itm0DnHU+trX9jToL6h9d9e8xyq+d+AAAAABJRU5ErkJggg==;" vertex="1" parent="1">
                    <mxGeometry x="172" y="678" width="29.53" height="28.75" as="geometry"/>
                </mxCell>
                <mxCell id="47" value="user&amp;nbsp; &amp;nbsp; 回复&amp;nbsp; &amp;nbsp; user1" style="text;html=1;align=left;verticalAlign=middle;resizable=0;points=[];autosize=1;strokeColor=none;fillColor=none;fontSize=14;fontColor=#000000;" vertex="1" parent="1">
                    <mxGeometry x="204.26" y="681.88" width="132" height="21" as="geometry"/>
                </mxCell>
                <mxCell id="48" value="ContentContentContentContentContentContentContent" style="text;html=1;align=center;verticalAlign=middle;resizable=0;points=[];autosize=1;strokeColor=none;fillColor=none;fontSize=14;fontColor=#000000;" vertex="1" parent="1">
                    <mxGeometry x="201.53" y="706.75" width="353" height="21" as="geometry"/>
                </mxCell>
                <mxCell id="49" value="&lt;font style=&quot;font-size: 12px&quot; color=&quot;#6e6e6e&quot;&gt;11/10&lt;/font&gt;" style="text;html=1;align=center;verticalAlign=middle;resizable=0;points=[];autosize=1;strokeColor=none;fillColor=none;fontSize=14;fontColor=#000000;" vertex="1" parent="1">
                    <mxGeometry x="206" y="730" width="39" height="21" as="geometry"/>
                </mxCell>
                <mxCell id="50" value="" style="shape=image;verticalLabelPosition=bottom;labelBackgroundColor=#ffffff;verticalAlign=top;aspect=fixed;imageAspect=0;image=data:image/png,iVBORw0KGgoAAAANSUhEUgAAACYAAAAlCAYAAAAuqZsAAAACQUlEQVRYhe2YQWvyQBCGn8QIzVppTFCJtAkIPeTs//8JnjwUqhSC0qilJLGYtFHJd4qYVmljMfpB31tmZjMPy+zsMlKapikXKPncAIek7H5sNhtc1yUIAsrcSEmS0DQN27apVCrApx1zXRff90uFAkjTFN/3cV13a8uBBUFQKtBn7ebPgZ37HOzmv9ji/wMrqosFU74P+V6dTgchBDc3N4RhSBRFPD8/nw/s6uoKx3GQZZnVasXb29sWsN1u8/DwwPv7e/lglmUhyzLj8Zj5fL61t1ot7u7usCyLx8fHo/59dI3puk69Xmc6neagAObzOdPplHq9jq7r5YJdX18D8PLystef2bO4ojoarFqtEscxSZLs9SdJQhzHVKvVcsGWyyWqqlKr1fb6a7UaqqqyXC7LBctOW6vV2uvP7KWfyiAI8DwP0zRZr9e8vr4SRRFCCAzDQNd1PM87+sXyq3aRNVHTNL/snOd5v2qyR4MJIbi/v0dRFD4+PojjmDiOUVUVVVUxTZNms8lwOCSKonLAGo0G3W4XgMlkwmw2+xLTbre5vb3FcRyenp7wfb9QjsLFL8vyFmowGOyFApjNZgwGAwC63S6yXCxVYbBOpwPAaDQ62MMyJUnCaDTKrTsZmGEYLBYLwjD8UXwYhiwWCwzDOB2YEAJFUQoXcxRFKIqCEOI0YNm9dwzY7vqfSNodEfT7/UIJT6Ferwdc8NP6D6yo/g8wSZLOxfElfw5M07TSYQ7lz13itm0DnHU+trX9jToL6h9d9e8xyq+d+AAAAABJRU5ErkJggg==;" vertex="1" parent="1">
                    <mxGeometry x="172" y="756" width="29.53" height="28.75" as="geometry"/>
                </mxCell>
                <mxCell id="51" value="user&amp;nbsp; &amp;nbsp; 回复&amp;nbsp; &amp;nbsp; user1" style="text;html=1;align=left;verticalAlign=middle;resizable=0;points=[];autosize=1;strokeColor=none;fillColor=none;fontSize=14;fontColor=#000000;" vertex="1" parent="1">
                    <mxGeometry x="204.26" y="759.88" width="132" height="21" as="geometry"/>
                </mxCell>
                <mxCell id="52" value="ContentContentContentContentContentContentContent" style="text;html=1;align=center;verticalAlign=middle;resizable=0;points=[];autosize=1;strokeColor=none;fillColor=none;fontSize=14;fontColor=#000000;" vertex="1" parent="1">
                    <mxGeometry x="201.53" y="784.75" width="353" height="21" as="geometry"/>
                </mxCell>
                <mxCell id="53" value="&lt;font style=&quot;font-size: 12px&quot; color=&quot;#6e6e6e&quot;&gt;11/10&lt;/font&gt;" style="text;html=1;align=center;verticalAlign=middle;resizable=0;points=[];autosize=1;strokeColor=none;fillColor=none;fontSize=14;fontColor=#000000;" vertex="1" parent="1">
                    <mxGeometry x="206" y="808" width="39" height="21" as="geometry"/>
                </mxCell>
            </root>
        </mxGraphModel>
    </diagram>
</mxfile>